<?xml version="1.0" standalone="no"?>
<!DOCTYPE svg PUBLIC "-//W3C//DTD SVG 20010904//EN"
 "http://www.w3.org/TR/2001/REC-SVG-20010904/DTD/svg10.dtd">
<svg version="1.0" xmlns="http://www.w3.org/2000/svg"
 width="100.000000pt" height="99.000000pt" viewBox="0 0 100.000000 99.000000"
 preserveAspectRatio="xMidYMid meet">

<g transform="translate(0.000000,99.000000) scale(0.100000,-0.100000)"
fill="#000000" stroke="none">
<path d="M0 495 l0 -495 500 0 500 0 0 495 0 495 -500 0 -500 0 0 -495z m538
355 c10 -11 26 -18 34 -15 22 9 70 -33 66 -60 -1 -12 5 -30 15 -39 9 -10 17
-28 17 -41 0 -13 -8 -31 -17 -41 -10 -9 -16 -27 -15 -39 4 -26 -43 -69 -66
-60 -8 3 -25 -5 -38 -17 -22 -21 -24 -31 -24 -117 l0 -95 28 28 c26 24 28 32
24 76 -4 44 -1 52 25 79 30 29 69 44 152 57 l43 7 -7 -44 c-13 -88 -36 -140
-69 -160 -36 -22 -64 -24 -101 -7 -23 10 -29 8 -60 -22 -33 -32 -35 -37 -35
-102 0 -39 -4 -68 -10 -68 -6 0 -10 29 -10 67 0 58 -3 70 -26 94 -22 23 -29
25 -53 16 -20 -7 -35 -6 -56 4 -35 17 -53 50 -62 114 l-6 47 44 -7 c84 -14
123 -46 122 -100 -1 -21 6 -40 18 -51 19 -17 19 -15 19 70 0 82 -1 88 -27 111
-16 14 -35 22 -45 19 -24 -7 -72 41 -65 65 2 11 -4 26 -14 35 -24 20 -24 62 0
82 10 9 16 24 14 35 -7 25 41 72 65 64 12 -3 26 2 37 15 23 26 59 26 83 0z"/>
<path d="M470 820 c-10 -18 -8 -20 25 -20 37 0 43 8 23 28 -18 18 -36 15 -48
-8z"/>
<path d="M397 798 c-19 -10 -21 -17 -7 -38 7 -12 12 -12 29 4 12 11 21 22 21
26 0 13 -26 18 -43 8z"/>
<path d="M559 800 c-12 -8 -10 -13 7 -31 22 -22 44 -19 44 6 0 20 -33 36 -51
25z"/>
<path d="M453 737 c-37 -40 -11 -99 45 -102 30 -1 61 29 61 60 0 52 -72 80
-106 42z"/>
<path d="M368 719 c-24 -13 -23 -36 2 -49 18 -10 20 -8 20 25 0 19 -1 35 -2
35 -2 0 -11 -5 -20 -11z"/>
<path d="M600 695 c0 -33 2 -35 20 -25 11 6 20 17 20 25 0 8 -9 19 -20 25 -18
10 -20 8 -20 -25z"/>
<path d="M386 624 c-8 -22 -8 -22 12 -33 10 -6 24 -6 32 -1 12 7 11 12 -4 29
-23 25 -32 26 -40 5z"/>
<path d="M564 619 c-16 -17 -16 -22 -4 -29 20 -13 26 -12 40 5 13 15 7 45 -8
45 -5 0 -17 -9 -28 -21z"/>
<path d="M470 570 c12 -23 30 -26 48 -8 20 20 14 28 -23 28 -33 0 -35 -2 -25
-20z"/>
<path d="M680 524 c-63 -16 -90 -43 -90 -87 l0 -30 25 23 c27 26 35 17 9 -11
-30 -33 8 -51 59 -28 14 6 30 23 36 36 12 26 27 114 20 112 -2 0 -29 -7 -59
-15z"/>
<path d="M334 435 c9 -39 28 -58 55 -53 20 3 19 6 -20 43 l-42 40 7 -30z"/>
<path d="M389 436 c14 -14 26 -24 29 -22 7 8 -8 25 -31 37 -21 11 -21 10 2
-15z"/>
</g>
</svg>
