<?xml version="1.0" standalone="no"?>
<!DOCTYPE svg PUBLIC "-//W3C//DTD SVG 20010904//EN"
 "http://www.w3.org/TR/2001/REC-SVG-20010904/DTD/svg10.dtd">
<svg version="1.0" xmlns="http://www.w3.org/2000/svg"
 width="102.000000pt" height="102.000000pt" viewBox="0 0 102.000000 102.000000"
 preserveAspectRatio="xMidYMid meet">

<g transform="translate(0.000000,102.000000) scale(0.100000,-0.100000)"
fill="#000000" stroke="none">
<path d="M20 510 l0 -500 500 0 500 0 0 500 0 500 -500 0 -500 0 0 -500z m796
263 c-22 -242 -99 -415 -211 -472 -39 -21 -64 -26 -121 -26 -62 0 -77 4 -121
31 l-51 32 -6 -37 c-3 -20 -6 -55 -6 -77 0 -28 -5 -44 -15 -48 -12 -4 -15 4
-15 44 0 27 5 71 11 98 9 43 8 53 -11 85 -44 74 -37 179 17 259 50 75 190 143
343 168 41 6 82 13 90 15 8 1 35 3 59 4 l44 1 -7 -77z"/>
<path d="M565 786 c-145 -38 -145 -38 -145 -113 l0 -63 75 61 c55 45 75 68 75
85 0 28 17 32 22 7 3 -16 10 -14 63 14 54 29 57 32 30 32 -16 0 -70 -11 -120
-23z"/>
<path d="M705 766 l-70 -35 53 0 c28 -1 52 -5 52 -11 0 -6 -31 -10 -72 -10
-53 0 -80 -5 -99 -18 -37 -25 -109 -88 -109 -95 0 -4 48 -8 108 -9 l107 -2
-120 -6 -120 -5 -42 -63 c-24 -35 -43 -68 -43 -73 0 -4 60 -10 133 -12 l132
-3 -137 -2 -138 -2 -6 -27 c-8 -30 5 -43 71 -74 51 -24 119 -24 170 0 46 21
105 82 134 140 24 47 57 166 66 236 4 28 9 62 11 78 3 15 2 27 -3 27 -5 0 -40
-15 -78 -34z"/>
<path d="M348 680 c-77 -76 -98 -157 -61 -238 l18 -37 3 103 c3 114 19 139 24
36 l3 -65 38 57 c36 55 38 62 35 128 l-3 71 -57 -55z"/>
</g>
</svg>
