<?xml version="1.0" standalone="no"?>
<!DOCTYPE svg PUBLIC "-//W3C//DTD SVG 20010904//EN"
 "http://www.w3.org/TR/2001/REC-SVG-20010904/DTD/svg10.dtd">
<svg version="1.0" xmlns="http://www.w3.org/2000/svg"
 width="102.000000pt" height="101.000000pt" viewBox="0 0 102.000000 101.000000"
 preserveAspectRatio="xMidYMid meet">

<g transform="translate(0.000000,101.000000) scale(0.100000,-0.100000)"
fill="#000000" stroke="none">
<path d="M10 500 l0 -500 500 0 500 0 0 500 0 500 -500 0 -500 0 0 -500z m352
293 c10 -16 21 -58 24 -91 4 -34 10 -62 13 -62 4 0 38 32 76 70 98 99 101 98
237 -38 87 -87 108 -114 108 -137 0 -23 -26 -54 -142 -173 -79 -79 -155 -150
-170 -158 -18 -9 -61 -14 -133 -14 -99 0 -107 2 -130 25 -23 23 -25 31 -25
130 0 92 3 110 20 132 16 21 20 41 20 107 0 99 20 199 45 226 23 25 35 22 57
-17z"/>
<path d="M310 758 c-14 -41 -26 -218 -14 -218 4 0 22 14 40 31 28 27 31 35 27
77 -6 67 -24 142 -33 142 -4 0 -13 -15 -20 -32z"/>
<path d="M427 622 c-70 -70 -127 -132 -127 -137 0 -6 5 -27 11 -48 8 -31 14
-37 29 -32 23 7 75 -18 84 -40 21 -57 -16 -115 -74 -115 -53 0 -94 82 -62 123
6 8 5 24 -2 44 -21 60 -31 41 -34 -63 -4 -133 -3 -134 128 -134 l98 0 49 39
c80 64 263 257 263 277 0 22 -197 213 -220 214 -8 0 -73 -57 -143 -128z"/>
<path d="M340 369 c0 -15 39 -69 51 -69 18 0 9 49 -13 64 -26 19 -38 20 -38 5z"/>
<path d="M310 328 c0 -14 7 -31 15 -38 27 -22 32 -5 8 29 -22 33 -23 33 -23 9z"/>
</g>
</svg>
